<svg width="201" height="122" viewBox="0 0 201 122" fill="none" xmlns="http://www.w3.org/2000/svg">
<path d="M55.1902 86.7C53.7902 86.7 51.8236 85.1333 49.2902 82C46.7569 78.8 45.4902 76.3667 45.4902 74.7C45.4902 72.9667 46.4902 67.8 48.4902 59.2C46.8902 57.6 46.0902 55.6 46.0902 53.2C46.0902 51.8667 47.6902 50.5333 50.8902 49.2C55.0902 32.1333 57.1902 21.3333 57.1902 16.8C57.1902 14.6 58.1569 13.5 60.0902 13.5C61.6902 13.5 63.7569 15.1 66.2902 18.3C68.8902 21.5 70.1902 24.5 70.1902 27.3C70.1902 29.1 68.9902 35.1 66.5902 45.3C72.3236 44.3 78.0236 43.7 83.6902 43.5C86.8902 30.1 88.4902 21.2 88.4902 16.8C88.4902 14.6 89.4569 13.5 91.3902 13.5C92.9902 13.5 95.0569 15.1 97.5902 18.3C100.19 21.5 101.49 24.5 101.49 27.3C101.49 28.7 100.19 34.4333 97.5902 44.5C100.924 45.3 102.59 46.6 102.59 48.4C102.59 50.4667 100.124 52.1 95.1902 53.3C92.7902 62.5 91.2236 68.6 90.4902 71.6C89.7569 74.5333 89.1902 76.7667 88.7902 78.3C88.4569 79.7667 88.0902 81.2 87.6902 82.6C86.9569 85.3333 86.2569 86.7 85.5902 86.7C83.9902 86.7 82.0569 85.4333 79.7902 82.9C77.5902 80.3667 76.4902 77.8333 76.4902 75.3C76.4902 73.8333 77.8902 67.3333 80.6902 55.8C73.0236 57.0667 67.1236 58.2333 62.9902 59.3C60.9236 67.2333 59.5569 72.7667 58.8902 75.9C58.2236 78.9667 57.6902 81.2 57.2902 82.6C56.5569 85.3333 55.8569 86.7 55.1902 86.7ZM116.527 86.2C114.994 86.2 113.16 84.9333 111.027 82.4C108.894 79.8 107.827 77.7 107.827 76.1C107.827 74.5 108.627 71.2 110.227 66.2C115.16 50.8667 117.794 37.4333 118.127 25.9C115.86 23.5 114.727 21.6 114.727 20.2C114.727 18 117.327 15.9333 122.527 14C127.794 12 132.794 11 137.527 11C145.527 11 151.827 12.8667 156.427 16.6C161.094 20.3333 163.427 25.1 163.427 30.9C163.427 38.3 159.794 45 152.527 51C145.327 57 136.227 61.1 125.227 63.3C122.094 74.5667 120.027 81.2 119.027 83.2C118.094 85.2 117.26 86.2 116.527 86.2ZM149.227 31.2C149.227 29.0667 148.46 27.3333 146.927 26C145.394 24.6 143.327 23.9 140.727 23.9C138.127 23.9 134.527 25.1333 129.927 27.6C131.26 29.9333 131.927 32.0333 131.927 33.9C131.927 37.5667 130.96 43 129.027 50.2C135.027 47.8 139.894 44.9333 143.627 41.6C147.36 38.2 149.227 34.7333 149.227 31.2Z" fill="black"/>
</svg>
